HIERARCHY
ROOT Hips
{
	OFFSET -3.958830 18.904000 13.208200
	CHANNELS 6 Xposition Yposition Zposition Zrotation Yrotation Xrotation 
	JOINT LHipJoint
	{
		OFFSET 0.000000 0.000000 0.000000
		CHANNELS 3 Zrotation Yrotation Xrotation
		JOINT LeftUpLeg
		{
			OFFSET 1.800000 -1.400000 0.085000
			CHANNELS 3 Zrotation Yrotation Xrotation
			JOINT LeftLeg
			{
				OFFSET 2.215000 -6.000000 0.000000
				CHANNELS 3 Zrotation Yrotation Xrotation
				JOINT LeftFoot
				{
					OFFSET 2.500000 -6.900000 0.000000
					CHANNELS 3 Zrotation Yrotation Xrotation
					JOINT LeftToeBase
					{
						OFFSET 0.200000 -0.500000 1.950000
						CHANNELS 3 Zrotation Yrotation Xrotation
						End Site
						{
							OFFSET 0.000000 0.000000 0.000000
						}
					}
				}
			}
		}
	}
	JOINT RHipJoint
	{
		OFFSET 0.000000 0.000000 0.000000
		CHANNELS 3 Zrotation Yrotation Xrotation
		JOINT RightUpLeg
		{
			OFFSET -1.800000 -1.400000 0.085000
			CHANNELS 3 Zrotation Yrotation Xrotation
			JOINT RightLeg
			{
				OFFSET -2.215000 -6.000000 0.000000
				CHANNELS 3 Zrotation Yrotation Xrotation
				JOINT RightFoot
				{
					OFFSET -2.500000 -6.900000 0.000000
					CHANNELS 3 Zrotation Yrotation Xrotation
					JOINT RightToeBase
					{
						OFFSET -0.200000 -0.500000 1.950000
						CHANNELS 3 Zrotation Yrotation Xrotation
						End Site
						{
							OFFSET 0.000000 0.000000 0.000000
						}
					}
				}
			}
		}
	}
	JOINT LowerBack
	{
		OFFSET 0.000000 0.000000 0.000000
		CHANNELS 3 Zrotation Yrotation Xrotation
		JOINT Spine
		{
			OFFSET -0.087000 1.940000 -0.288900
			CHANNELS 3 Zrotation Yrotation Xrotation
			JOINT Spine1
			{
				OFFSET 0.000000 1.950000 0.060000
				CHANNELS 3 Zrotation Yrotation Xrotation
				JOINT Neck
				{
					OFFSET 0.000000 0.000000 0.000000
					CHANNELS 3 Zrotation Yrotation Xrotation
					JOINT Neck1
					{
						OFFSET 0.000000 1.600000 0.340000
						CHANNELS 3 Zrotation Yrotation Xrotation
						JOINT Head
						{
							OFFSET 0.000000 1.667000 -0.240000
							CHANNELS 3 Zrotation Yrotation Xrotation
							End Site
							{
								OFFSET 0.000000 0.000000 0.000000
							}
						}
					}
				}
				JOINT LeftShoulder
				{
					OFFSET 0.000000 0.000000 0.000000
					CHANNELS 3 Zrotation Yrotation Xrotation
					JOINT LeftArm
					{
						OFFSET 2.700000 1.550000 -0.730000
						CHANNELS 3 Zrotation Yrotation Xrotation
						JOINT LeftForeArm
						{
							OFFSET 5.450000 0.000000 0.000000
							CHANNELS 3 Zrotation Yrotation Xrotation
							JOINT LeftHand
							{
								OFFSET 3.450000 0.000000 0.000000
								CHANNELS 3 Zrotation Yrotation Xrotation
								JOINT LeftHandIndex1
								{
									OFFSET 0.750000 0.000000 0.000000
									CHANNELS 3 Zrotation Yrotation Xrotation
									End Site
									{
										OFFSET 0.000000 0.000000 0.000000
									}
								}
							}
						}
					}
				}
				JOINT RightShoulder
				{
					OFFSET 0.000000 0.000000 0.000000
					CHANNELS 3 Zrotation Yrotation Xrotation
					JOINT RightArm
					{
						OFFSET -2.700000 1.550000 -0.730000
						CHANNELS 3 Zrotation Yrotation Xrotation
						JOINT RightForeArm
						{
							OFFSET -5.450000 0.000000 0.000000
							CHANNELS 3 Zrotation Yrotation Xrotation
							JOINT RightHand
							{
								OFFSET -3.450000 0.000000 0.000000
								CHANNELS 3 Zrotation Yrotation Xrotation
								JOINT RightHandIndex1
								{
									OFFSET -0.750000 0.000000 0.000000
									CHANNELS 3 Zrotation Yrotation Xrotation
									End Site
									{
										OFFSET 0.000000 0.000000 0.000000
									}
								}
							}
						}
					}
				}
			}
		}
	}
}
MOTION
Frames: 9
Frame Time: 0.016667
-0.905500 16.344620 -3.406530 4.684143 9.502338 -16.348911 -15.427184 11.544207 5.872571 30.309692 -9.066258 -22.970141 -37.934108 25.335581 40.486736 0.964732 12.670008 -0.019622 0.699730 0.540360 0.651680 18.319082 -9.510087 1.844421 -30.305760 -1.798351 -27.644383 -4.383405 -13.635129 62.227115 -1.878843 -9.505993 0.729373 0.207180 -0.159350 0.398990 -3.402313 -3.192469 -9.239744 27.004603 -11.573598 46.171059 -2.131440 -3.440404 12.097266 3.715319 -4.289904 -16.279754 -16.691838 0.556865 57.153358 -4.619210 -2.249840 -38.921570 -22.001429 -36.877434 6.599575 -17.828087 -23.621575 -8.060308 -148.237358 -62.505197 112.840129 -3.337632 2.734913 1.190860 -0.356200 0.686790 0.031240 15.220176 38.688275 12.392683 41.880961 16.027646 -18.830954 84.461538 61.012466 32.398127 2.099564 -1.308890 -0.071250 0.480760 0.052330 -0.244630 
-0.900930 16.317770 -3.390440 4.807721 8.934511 -17.407197 -15.437415 11.618771 5.880973 30.717825 -9.315861 -21.740777 -38.562769 25.677712 40.526411 1.003701 12.760894 -0.022250 0.704820 0.547670 0.656560 18.301151 -9.546026 1.753420 -30.197004 -2.244719 -27.322628 -5.671428 -13.118407 63.106724 -1.920121 -9.555988 0.740532 0.211140 -0.142950 0.380990 -3.365218 -3.325001 -9.204202 26.859326 -11.938667 46.624595 -1.977793 -3.925311 11.732061 3.586031 -4.282544 -16.325356 -16.893616 1.223056 57.888929 -4.032370 -1.683520 -39.433500 -22.210325 -37.003014 6.708234 -17.126962 -23.205561 -8.348632 -149.915343 -62.622075 115.452237 -3.309860 2.708514 1.211530 -0.360950 0.694920 0.051290 15.697139 38.568222 12.149588 41.439329 16.042726 -18.725051 85.082122 58.991868 31.525047 2.096045 -1.301557 -0.091260 0.520700 0.040140 -0.244050 
-0.891170 16.269040 -3.347800 4.605468 8.335337 -18.497257 -15.435729 11.613365 5.929840 31.782119 -9.564322 -20.570916 -39.570167 26.391314 40.737981 1.077112 12.903238 -0.056512 0.728540 0.581600 0.658910 18.313305 -9.590339 1.634633 -29.970917 -2.969492 -27.064102 -7.229121 -12.694043 64.341573 -1.981442 -9.695918 0.712960 0.225450 -0.154070 0.379480 -3.387738 -3.353603 -9.175125 27.316740 -12.760632 45.815827 -2.103962 -4.902508 11.276584 3.466260 -4.256496 -16.290606 -16.863282 1.874893 58.513363 -3.854630 -0.918200 -39.104900 -22.190525 -36.839180 7.160184 -16.768895 -22.504843 -8.138008 -153.153616 -61.653380 119.149505 -3.271296 2.776240 1.208970 -0.364830 0.704610 0.072250 15.908815 38.065407 11.517256 41.520020 16.681040 -18.166382 85.717743 55.436888 29.709097 2.110267 -1.353194 -0.081220 0.508130 0.014020 -0.240310 
-0.887550 16.232530 -3.275330 4.623980 7.595307 -19.946637 -15.394300 11.655541 5.843341 32.055970 -9.403263 -18.567931 -39.307987 27.010224 41.396685 1.182821 12.929220 -0.073521 0.817990 0.708550 0.709650 18.339440 -9.757733 1.525502 -30.017401 -3.376072 -26.092603 -8.365968 -12.215151 65.120418 -2.045871 -9.785144 0.685323 0.266890 -0.229030 0.392880 -3.483769 -3.166093 -9.091137 27.607404 -12.994055 44.113236 -2.278853 -5.912804 12.380367 3.308649 -3.834628 -16.124820 -15.624622 1.846308 58.606192 -4.130990 0.063540 -39.066450 -21.233471 -37.102184 7.790607 -16.237489 -22.401959 -7.877507 -158.151154 -60.644979 125.689983 -3.191428 2.910849 1.163390 -0.386980 0.743290 0.095220 15.267246 37.635917 10.988318 41.628277 17.984369 -17.584757 83.662452 54.528398 28.169892 2.130642 -1.442702 -0.001000 0.433030 -0.066670 -0.225480 
-0.876360 16.227410 -3.190190 4.469753 7.123406 -21.347854 -15.316748 11.714979 5.691855 31.881029 -9.233462 -16.508309 -37.947095 27.417563 42.614674 1.203482 13.052927 -0.090106 0.819310 0.712210 0.691230 18.392318 -10.029894 1.365726 -29.812789 -3.849900 -24.618344 -9.607797 -11.529066 65.187182 -2.048698 -9.778669 0.694429 0.287900 -0.196660 0.383130 -3.666392 -2.851145 -8.932215 28.379849 -13.161249 41.134750 -2.262308 -7.082397 14.134384 2.853716 -4.098306 -15.905662 -15.910653 2.141826 57.889935 -3.456430 0.113280 -38.086400 -19.481960 -37.206181 8.501615 -17.122999 -22.976829 -7.597578 -162.669327 -61.432796 133.017234 -3.188555 2.894800 1.148780 -0.369480 0.720640 0.115840 14.557031 37.241363 10.530838 41.218301 19.509701 -16.752260 81.528402 54.299236 27.319876 2.119709 -1.451835 -0.020240 0.451710 -0.068560 -0.217210 
-0.859930 16.240410 -3.089520 4.011787 6.295417 -22.679921 -15.213034 11.811969 5.525771 31.780010 -8.855637 -14.268072 -35.855641 27.530506 43.916841 1.279880 13.056144 -0.077440 0.876930 0.797640 0.693460 18.451570 -10.422077 1.154243 -28.592046 -4.177502 -22.909654 -11.598127 -10.084661 64.691997 -2.047878 -9.666236 0.740867 0.318570 -0.215870 0.402650 -3.897070 -2.386246 -8.737137 29.675148 -13.089467 37.438142 -2.670915 -7.869908 16.058568 2.624796 -4.101053 -16.051395 -15.718190 1.774175 57.339999 -3.546030 -0.115550 -36.206040 -18.211783 -37.857440 9.492746 -17.430247 -23.532702 -7.068110 -168.898389 -61.939202 143.118402 -3.139339 2.993140 1.082310 -0.359950 0.726490 0.161630 13.826601 37.462886 10.375363 41.016174 20.697590 -16.024036 81.101126 53.888522 26.917579 2.135397 -1.547487 0.042050 0.391060 -0.132510 -0.179690 
-0.846070 16.264760 -2.985430 3.494455 5.966087 -23.796473 -15.084743 11.886249 5.274657 31.218145 -8.304896 -12.353777 -32.588363 27.273290 45.767958 1.345974 13.026466 -0.051721 0.904980 0.864360 0.649960 18.536796 -10.849113 0.985853 -27.489098 -4.385029 -20.975837 -13.161675 -8.898026 64.044085 -2.021220 -9.606106 0.797693 0.339540 -0.204000 0.415810 -4.192888 -1.786550 -8.513511 31.193932 -12.367313 32.863681 -2.904964 -8.227044 18.111040 2.153809 -3.942534 -15.965023 -15.130851 0.666088 55.949859 -3.586270 -0.952510 -33.040820 -15.792864 -38.377512 9.989870 -17.784241 -25.102255 -6.314669 -172.486814 -63.715957 149.943031 -3.119233 3.085338 0.974250 -0.316990 0.693620 0.209020 12.398652 37.304139 10.682722 41.624520 21.141337 -15.238849 82.307041 55.718666 28.711428 2.171626 -1.637988 0.105560 0.325560 -0.178370 -0.127540 
-0.822560 16.312610 -2.873480 2.749939 5.905157 -24.896223 -14.903749 11.889613 4.898427 30.470426 -7.698381 -10.139770 -28.479198 26.412670 47.610442 1.340073 12.971326 0.004947 0.889040 0.847630 0.602010 18.679413 -11.393354 0.821736 -26.505962 -4.775598 -18.523858 -14.482421 -7.842923 62.585716 -1.961985 -9.479463 0.865377 0.343530 -0.140880 0.428530 -4.640725 -0.849601 -8.200526 33.326634 -11.357716 27.390923 -3.835347 -8.466305 20.580164 1.518946 -3.432073 -15.456240 -13.601251 -0.917651 53.864212 -3.372610 -1.762480 -29.776420 -12.392088 -38.654730 10.395131 -18.211503 -27.809295 -4.822266 175.888125 -65.521924 168.352178 -3.150980 3.181817 0.894680 -0.251820 0.631450 0.246880 10.311050 36.340946 10.890357 43.673031 22.037352 -13.918026 83.890439 58.821417 31.759924 2.241300 -1.668011 0.107480 0.298520 -0.188220 -0.098180 
-0.802670 16.367770 -2.747940 2.153307 6.094996 -25.840615 -14.750598 11.961706 4.403861 29.408361 -6.648596 -7.893803 -23.376360 25.103868 49.684491 1.320067 12.840074 0.080221 0.834420 0.800100 0.522970 18.802872 -11.876215 0.722541 -26.103634 -4.831213 -15.669152 -14.883527 -7.287613 60.950052 -1.862151 -9.395524 0.920471 0.332040 -0.053730 0.450730 -5.028088 -0.028699 -7.831204 34.259829 -9.616051 21.596413 -4.120098 -8.590834 22.933971 0.628782 -2.402129 -14.616087 -10.907922 -2.826671 51.199330 -3.871830 -2.356660 -25.044210 -7.741727 -38.282913 10.386753 -19.304323 -31.469497 -1.734962 166.276650 -65.571650 -177.153692 -3.275840 3.279122 0.762220 -0.143850 0.528640 0.259030 7.470004 34.497487 11.039556 46.742222 23.199669 -11.587649 85.665063 63.278931 36.110417 2.378607 -1.638021 0.118340 0.247120 -0.164960 -0.063890 
